# Blender v2.93.0 OBJ File: ''
# www.blender.org
mtllib RR_Logo.mtl
o Cube
v 1.000000 1.000000 -1.170912
v 1.000000 -1.000000 -1.170912
v 1.000000 1.000000 1.000000
v 1.000000 -1.000000 1.000000
v -1.000000 1.000000 -1.170912
v -1.000000 -1.000000 -1.170912
v -1.000000 1.000000 1.000000
v -1.000000 -1.000000 1.000000
v 1.000000 0.750000 -1.292524
v 1.000000 0.500000 -1.408873
v 1.000000 0.250000 -1.496146
v 1.000000 0.000000 -1.530529
v 1.000000 -0.250000 -1.496146
v 1.000000 -0.500000 -1.408873
v 1.000000 -0.750000 -1.292524
v -1.000000 -0.750000 1.000000
v -1.000000 -0.500000 1.000000
v -1.000000 -0.250000 1.000000
v -1.000000 0.000000 1.000000
v -1.000000 0.250000 1.000000
v -1.000000 0.500000 1.000000
v -1.000000 0.750000 1.000000
v 1.000000 0.750000 1.000000
v 1.000000 0.500000 1.000000
v 1.000000 0.250000 1.000000
v 1.000000 0.000000 1.000000
v 1.000000 -0.250000 1.000000
v 1.000000 -0.500000 1.000000
v 1.000000 -0.750000 1.000000
v -1.000000 0.750000 -1.292524
v -1.000000 0.500000 -1.408873
v -1.000000 0.250000 -1.496146
v -1.000000 0.000000 -1.530529
v -1.000000 -0.250000 -1.496146
v -1.000000 -0.500000 -1.408873
v -1.000000 -0.750000 -1.292524
v -1.000000 -1.000000 -0.849861
v 1.000000 1.000000 -0.849861
v -1.000000 1.000000 -0.849861
v 1.000000 -1.000000 -0.849861
v 1.000000 -0.750000 -0.963101
v 1.000000 -0.500000 -1.071295
v 1.000000 -0.250000 -1.151085
v 1.000000 0.000000 -1.181152
v 1.000000 0.250000 -1.151085
v 1.000000 0.500000 -1.071295
v 1.000000 0.750000 -0.963101
v -1.000000 -0.750000 -0.963101
v -1.000000 -0.500000 -1.071295
v -1.000000 -0.250000 -1.151085
v -1.000000 0.000000 -1.181152
v -1.000000 0.250000 -1.151085
v -1.000000 0.500000 -1.071295
v -1.000000 0.750000 -0.963101
v -1.000000 -1.000000 -0.233240
v -1.000000 -1.000000 0.383380
v 1.000000 1.000000 -0.233240
v 1.000000 1.000000 0.383380
v 1.000000 -0.750000 -0.308734
v 1.000000 -0.750000 0.345633
v 1.000000 -0.500000 -0.380863
v 1.000000 -0.500000 0.309568
v 1.000000 -0.250000 -0.434057
v 1.000000 -0.250000 0.282972
v 1.000000 0.000000 0.272949
v 1.000000 0.250000 0.282972
v 1.000000 0.500000 -0.380863
v 1.000000 0.500000 0.309568
v 1.000000 0.750000 -0.308734
v 1.000000 0.750000 0.345633
v -1.000000 1.000000 0.383380
v -1.000000 1.000000 -0.233240
v 1.000000 -1.000000 0.383380
v 1.000000 -1.000000 -0.233240
v -1.000000 -0.750000 0.345633
v -1.000000 -0.750000 -0.308734
v -1.000000 -0.500000 0.309568
v -1.000000 -0.500000 -0.380863
v -1.000000 -0.250000 0.282972
v -1.000000 -0.250000 -0.434057
v -1.000000 0.000000 0.272949
v -1.000000 0.250000 0.282972
v -1.000000 0.500000 0.309568
v -1.000000 0.500000 -0.380863
v -1.000000 0.750000 0.345633
v -1.000000 0.750000 -0.308734
v -1.000000 -2.517708 0.383380
v -1.000000 -2.517708 1.000000
v 1.000000 -2.517708 1.000000
v 1.000000 -2.517708 0.383380
v 1.000000 -2.453913 -0.744784
v 1.000000 -2.453913 -1.361404
v -1.000000 -2.453913 -1.361404
v -1.000000 -2.453913 -0.744784
v 1.000000 -0.250000 -0.434057
v 1.000000 -0.250000 0.282972
v -1.000000 -0.250000 0.282972
v -1.000000 -0.250000 -0.434057
vt 0.625000 0.679199
vt 0.875000 0.679199
vt 0.875000 0.750000
vt 0.625000 0.750000
vt 0.593750 0.750000
vt 0.625000 1.000000
vt 0.593750 1.000000
vt 0.593750 0.212403
vt 0.625000 0.212403
vt 0.625000 0.250000
vt 0.593750 0.250000
vt 0.375000 0.000000
vt 0.375000 0.070801
vt 0.375000 0.070801
vt 0.375000 0.000000
vt 0.593750 0.679199
vt 0.625000 0.500000
vt 0.593750 0.500000
vt 0.375000 0.250000
vt 0.406250 0.250000
vt 0.406250 0.500000
vt 0.375000 0.500000
vt 0.437500 0.250000
vt 0.437500 0.500000
vt 0.468750 0.250000
vt 0.468750 0.500000
vt 0.500000 0.250000
vt 0.500000 0.500000
vt 0.531250 0.250000
vt 0.531250 0.500000
vt 0.562500 0.250000
vt 0.562500 0.500000
vt 0.375000 0.679199
vt 0.406250 0.679199
vt 0.406250 0.750000
vt 0.375000 0.750000
vt 0.437500 0.679199
vt 0.437500 0.750000
vt 0.468750 0.679199
vt 0.468750 0.750000
vt 0.500000 0.679199
vt 0.500000 0.750000
vt 0.531250 0.679199
vt 0.531250 0.750000
vt 0.562500 0.679199
vt 0.562500 0.750000
vt 0.375000 0.212403
vt 0.406250 0.212403
vt 0.437500 0.212403
vt 0.468750 0.212403
vt 0.500000 0.212403
vt 0.531250 0.212403
vt 0.562500 0.212403
vt 0.406250 1.000000
vt 0.375000 1.000000
vt 0.437500 1.000000
vt 0.468750 1.000000
vt 0.500000 1.000000
vt 0.531250 1.000000
vt 0.562500 1.000000
vt 0.562500 0.141602
vt 0.593750 0.141602
vt 0.437500 0.141602
vt 0.468750 0.141602
vt 0.406250 0.141602
vt 0.375000 0.141602
vt 0.593750 0.537597
vt 0.562500 0.537597
vt 0.531250 0.537597
vt 0.500000 0.537597
vt 0.468750 0.537597
vt 0.437500 0.537597
vt 0.406250 0.537597
vt 0.375000 0.537597
vt 0.625000 0.537597
vt 0.125000 0.500000
vt 0.125000 0.537597
vt 0.625000 0.141602
vt 0.875000 0.500000
vt 0.875000 0.537597
vt 0.593750 0.000000
vt 0.625000 0.000000
vt 0.625000 0.070801
vt 0.593750 0.070801
vt 0.406250 0.000000
vt 0.406250 0.070801
vt 0.437500 0.000000
vt 0.437500 0.070801
vt 0.468750 0.000000
vt 0.468750 0.070801
vt 0.500000 0.000000
vt 0.500000 0.070801
vt 0.531250 0.000000
vt 0.531250 0.070801
vt 0.562500 0.000000
vt 0.562500 0.070801
vt 0.593750 0.608398
vt 0.562500 0.608398
vt 0.468750 0.608398
vt 0.437500 0.608398
vt 0.406250 0.608398
vt 0.375000 0.608398
vt 0.625000 0.608398
vt 0.125000 0.608398
vt 0.125000 0.608398
vt 0.375000 0.608398
vt 0.125000 0.679199
vt 0.875000 0.608398
vt 0.125000 0.679199
vt 0.375000 0.679199
vt 0.375000 0.750000
vt 0.125000 0.750000
vt 0.375000 1.000000
vt 0.125000 0.537597
vt 0.375000 0.537597
vt 0.375000 0.212403
vt 0.375000 0.141602
vt 0.468750 0.070801
vt 0.468750 0.141602
vt 0.468750 0.608398
vt 0.468750 0.679199
vn 0.7071 0.7071 0.0000
vn -0.7071 0.7071 0.0000
vn -0.5773 0.5773 0.5773
vn 0.5773 0.5773 0.5773
vn 0.7071 0.0000 0.7071
vn -0.7071 0.0000 0.7071
vn -1.0000 0.0000 0.0000
vn -0.6049 0.6750 -0.4223
vn -0.7052 0.3047 -0.6402
vn -0.9045 -0.3015 -0.3015
vn -0.5773 -0.5773 -0.5773
vn -0.5773 -0.5773 0.5773
vn 1.0000 0.0000 0.0000
vn 0.6049 0.6750 -0.4223
vn 0.7052 0.3047 -0.6402
vn -0.6049 -0.6750 -0.4223
vn -0.7052 -0.3047 -0.6402
vn 0.7052 -0.3047 -0.6402
vn 0.6049 -0.6750 -0.4223
vn -0.6960 -0.2701 -0.6652
vn 0.6960 -0.2701 -0.6652
vn -0.6854 -0.1704 -0.7079
vn 0.6854 -0.1704 -0.7079
vn -0.6777 0.0000 -0.7353
vn 0.6777 0.0000 -0.7353
vn -0.6854 0.1704 -0.7079
vn 0.6854 0.1704 -0.7079
vn -0.6960 0.2701 -0.6652
vn 0.6960 0.2701 -0.6652
vn 0.9045 -0.3015 -0.3015
vn 0.9999 0.0117 0.0002
vn 0.7071 0.0251 -0.7067
vn 0.9109 -0.2864 -0.2968
vn -0.9410 -0.1955 -0.2761
vn -0.9094 0.2781 0.3093
vn -0.7588 -0.0689 0.6477
vn -0.7483 -0.0702 0.6596
vn -0.8834 -0.3485 0.3133
vn -0.8165 0.4082 0.4082
vn -0.8627 -0.4126 0.2922
vn 0.8834 -0.3485 0.3133
vn 0.7483 -0.0702 0.6596
vn 0.7588 -0.0689 0.6477
vn 0.9094 0.2781 0.3093
vn 0.9410 -0.1955 -0.2761
vn -0.9999 0.0117 0.0002
vn -0.7071 0.0251 -0.7067
vn -0.9109 -0.2864 -0.2968
vn 0.8165 0.4082 0.4082
vn 0.8627 -0.4126 0.2922
vn -0.5972 -0.6545 0.4635
vn 0.5972 -0.6545 0.4635
vn 0.5773 -0.5773 -0.5773
vn 0.5773 -0.5773 0.5773
vn -0.5616 -0.4782 -0.6752
vn 0.5616 -0.4782 -0.6752
vn 0.0000 0.7071 0.7071
usemtl Material
s 1
f 58/1/1 71/2/2 7/3/3 3/4/4
f 23/5/5 3/4/4 7/6/3 22/7/6
f 54/8/7 39/9/2 5/10/8 30/11/9
f 8/12/6 56/13/10 87/14/11 88/15/12
f 70/16/13 58/1/1 3/4/4 23/5/5
f 30/11/9 5/10/8 1/17/14 9/18/15
f 6/19/16 36/20/17 15/21/18 2/22/19
f 36/20/17 35/23/20 14/24/21 15/21/18
f 35/23/20 34/25/22 13/26/23 14/24/21
f 34/25/22 33/27/24 12/28/25 13/26/23
f 33/27/24 32/29/26 11/30/27 12/28/25
f 32/29/26 31/31/28 10/32/29 11/30/27
f 31/31/28 30/11/9 9/18/15 10/32/29
f 73/33/30 60/34/13 29/35/5 4/36/5
f 60/34/13 62/37/13 28/38/5 29/35/5
f 62/37/13 64/39/31 27/40/5 28/38/5
f 64/39/31 65/41/32 26/42/5 27/40/5
f 65/41/32 66/43/32 25/44/5 26/42/5
f 66/43/32 68/45/33 24/46/5 25/44/5
f 68/45/33 70/16/13 23/5/5 24/46/5
f 37/47/34 48/48/7 36/20/17 6/19/16
f 48/48/7 49/49/7 35/23/20 36/20/17
f 49/49/7 50/50/35 34/25/22 35/23/20
f 50/50/35 51/51/36 33/27/24 34/25/22
f 51/51/36 52/52/37 32/29/26 33/27/24
f 52/52/37 53/53/38 31/31/28 32/29/26
f 53/53/38 54/8/7 30/11/9 31/31/28
f 4/36/5 29/35/5 16/54/6 8/55/6
f 29/35/5 28/38/5 17/56/6 16/54/6
f 28/38/5 27/40/5 18/57/6 17/56/6
f 27/40/5 26/42/5 19/58/6 18/57/6
f 26/42/5 25/44/5 20/59/6 19/58/6
f 25/44/5 24/46/5 21/60/6 20/59/6
f 24/46/5 23/5/5 22/7/6 21/60/6
f 84/61/6 86/62/7 54/8/7 53/53/38
f 78/63/7 80/64/39 50/50/35 49/49/7
f 76/65/7 78/63/7 49/49/7 48/48/7
f 55/66/40 76/65/7 48/48/7 37/47/34
f 10/32/29 9/18/15 47/67/13 46/68/41
f 11/30/27 10/32/29 46/68/41 45/69/42
f 12/28/25 11/30/27 45/69/42 44/70/43
f 13/26/23 12/28/25 44/70/43 43/71/44
f 14/24/21 13/26/23 43/71/44 42/72/13
f 15/21/18 14/24/21 42/72/13 41/73/13
f 2/22/19 15/21/18 41/73/13 40/74/45
f 9/18/15 1/17/14 38/75/1 47/67/13
f 6/76/16 2/22/19 40/74/45 37/77/34
f 86/62/7 72/78/2 39/9/2 54/8/7
f 1/17/14 5/79/8 39/80/2 38/75/1
f 22/81/6 7/82/3 71/83/2 85/84/7
f 85/84/7 71/83/2 72/78/2 86/62/7
f 8/12/6 16/85/6 75/86/7 56/13/10
f 56/13/10 75/86/7 76/65/7 55/66/40
f 16/85/6 17/87/6 77/88/7 75/86/7
f 75/86/7 77/88/7 78/63/7 76/65/7
f 17/87/6 18/89/6 79/90/46 77/88/7
f 77/88/7 79/90/46 80/64/39 78/63/7
f 18/89/6 19/91/6 81/92/47 79/90/46
f 19/91/6 20/93/6 82/94/47 81/92/47
f 20/93/6 21/95/6 83/96/48 82/94/47
f 21/95/6 22/81/6 85/84/7 83/96/48
f 83/96/48 85/84/7 86/62/7 84/61/6
f 46/68/41 47/67/13 69/97/13 67/98/5
f 67/98/5 69/97/13 70/16/13 68/45/33
f 42/72/13 43/71/44 63/99/49 61/100/13
f 61/100/13 63/99/49 64/39/31 62/37/13
f 41/73/13 42/72/13 61/100/13 59/101/13
f 59/101/13 61/100/13 62/37/13 60/34/13
f 40/74/45 41/73/13 59/101/13 74/102/50
f 74/102/50 59/101/13 60/34/13 73/33/30
f 47/67/13 38/75/1 57/103/1 69/97/13
f 69/97/13 57/103/1 58/1/1 70/16/13
f 74/102/50 55/104/40 94/105/51 91/106/52
f 55/104/40 74/102/50 73/33/30 56/107/10
f 38/75/1 39/80/2 72/108/2 57/103/1
f 57/103/1 72/108/2 71/2/2 58/1/1
f 87/109/11 90/110/53 89/111/54 88/112/12
f 73/33/30 4/36/5 89/111/54 90/110/53
f 4/36/5 8/55/6 88/113/12 89/111/54
f 56/107/10 73/33/30 90/110/53 87/109/11
f 93/114/55 92/115/56 91/106/52 94/105/51
f 40/74/45 74/102/50 91/106/52 92/115/56
f 55/66/40 37/47/34 93/116/55 94/117/51
f 37/77/34 40/74/45 92/115/56 93/114/55
f 80/64/39 79/90/46 97/118/57 98/119/57
f 64/39/31 63/99/49 95/120/57 96/121/57
f 95/120/57 98/119/57 97/118/57 96/121/57
f 80/64/39 63/99/49 43/71/44 50/50/35
f 52/52/37 51/51/36 50/50/35 43/71/44 44/70/43 45/69/42 46/68/41 53/53/38
f 67/98/5 68/45/33 46/68/41
f 84/61/6 53/53/38 83/96/48
f 53/53/38 46/68/41 68/45/33 83/96/48
f 79/90/46 81/92/47 82/94/47 83/96/48 68/45/33 66/43/32 65/41/32 64/39/31
o Cube.001
v -1.000000 1.000000 3.478755
v -1.000000 -1.000000 3.478755
v -1.000000 1.000000 1.307843
v -1.000000 -1.000000 1.307843
v 1.000000 1.000000 3.478754
v 1.000000 -1.000000 3.478754
v 1.000000 1.000000 1.307842
v 1.000000 -1.000000 1.307842
v -1.000000 0.750000 3.600367
v -1.000000 0.500000 3.716716
v -1.000000 0.250000 3.803989
v -1.000000 0.000000 3.838372
v -1.000000 -0.250000 3.803989
v -1.000000 -0.500000 3.716716
v -1.000000 -0.750000 3.600367
v 1.000000 -0.750000 1.307842
v 1.000000 -0.500000 1.307842
v 1.000000 -0.250000 1.307842
v 1.000000 0.000000 1.307842
v 1.000000 0.250000 1.307842
v 1.000000 0.500000 1.307842
v 1.000000 0.750000 1.307842
v -1.000000 0.750000 1.307843
v -1.000000 0.500000 1.307843
v -1.000000 0.250000 1.307843
v -1.000000 0.000000 1.307843
v -1.000000 -0.250000 1.307843
v -1.000000 -0.500000 1.307843
v -1.000000 -0.750000 1.307843
v 1.000000 0.750000 3.600367
v 1.000000 0.500000 3.716716
v 1.000000 0.250000 3.803988
v 1.000000 0.000000 3.838371
v 1.000000 -0.250000 3.803988
v 1.000000 -0.500000 3.716716
v 1.000000 -0.750000 3.600367
v 1.000000 -1.000000 3.157703
v -1.000000 1.000000 3.157703
v 1.000000 1.000000 3.157703
v -1.000000 -1.000000 3.157703
v -1.000000 -0.750000 3.270943
v -1.000000 -0.500000 3.379138
v -1.000000 -0.250000 3.458928
v -1.000000 0.000000 3.488995
v -1.000000 0.250000 3.458928
v -1.000000 0.500000 3.379138
v -1.000000 0.750000 3.270943
v 1.000000 -0.750000 3.270943
v 1.000000 -0.500000 3.379138
v 1.000000 -0.250000 3.458927
v 1.000000 0.000000 3.488994
v 1.000000 0.250000 3.458927
v 1.000000 0.500000 3.379138
v 1.000000 0.750000 3.270943
v 1.000000 -1.000000 2.541083
v 1.000000 -1.000000 1.924462
v -1.000000 1.000000 2.541083
v -1.000000 1.000000 1.924463
v -1.000000 -0.750000 2.616576
v -1.000000 -0.750000 1.962210
v -1.000000 -0.500000 2.688706
v -1.000000 -0.500000 1.998275
v -1.000000 -0.250000 2.741899
v -1.000000 -0.250000 2.024871
v -1.000000 0.000000 2.034893
v -1.000000 0.250000 2.024871
v -1.000000 0.500000 2.688706
v -1.000000 0.500000 1.998275
v -1.000000 0.750000 2.616576
v -1.000000 0.750000 1.962210
v 1.000000 1.000000 1.924462
v 1.000000 1.000000 2.541083
v -1.000000 -1.000000 1.924463
v -1.000000 -1.000000 2.541083
v 1.000000 -0.750000 1.962209
v 1.000000 -0.750000 2.616576
v 1.000000 -0.500000 1.998274
v 1.000000 -0.500000 2.688706
v 1.000000 -0.250000 2.024870
v 1.000000 -0.250000 2.741899
v 1.000000 0.000000 2.034893
v 1.000000 0.250000 2.024870
v 1.000000 0.500000 1.998274
v 1.000000 0.500000 2.688706
v 1.000000 0.750000 1.962209
v 1.000000 0.750000 2.616576
v 1.000000 -2.517708 1.924462
v 1.000000 -2.517708 1.307842
v -1.000000 -2.517708 1.307843
v -1.000000 -2.517708 1.924463
v -1.000000 -2.453913 3.052627
v -1.000000 -2.453913 3.669247
v 1.000000 -2.453913 3.669246
v 1.000000 -2.453913 3.052626
v -1.000000 -0.250000 2.741899
v -1.000000 -0.250000 2.024871
v 1.000000 -0.250000 2.024870
v 1.000000 -0.250000 2.741899
vt 0.625000 0.679199
vt 0.875000 0.679199
vt 0.875000 0.750000
vt 0.625000 0.750000
vt 0.593750 0.750000
vt 0.625000 1.000000
vt 0.593750 1.000000
vt 0.593750 0.212403
vt 0.625000 0.212403
vt 0.625000 0.250000
vt 0.593750 0.250000
vt 0.375000 0.000000
vt 0.375000 0.070801
vt 0.375000 0.070801
vt 0.375000 0.000000
vt 0.593750 0.679199
vt 0.625000 0.500000
vt 0.593750 0.500000
vt 0.375000 0.250000
vt 0.406250 0.250000
vt 0.406250 0.500000
vt 0.375000 0.500000
vt 0.437500 0.250000
vt 0.437500 0.500000
vt 0.468750 0.250000
vt 0.468750 0.500000
vt 0.500000 0.250000
vt 0.500000 0.500000
vt 0.531250 0.250000
vt 0.531250 0.500000
vt 0.562500 0.250000
vt 0.562500 0.500000
vt 0.375000 0.679199
vt 0.406250 0.679199
vt 0.406250 0.750000
vt 0.375000 0.750000
vt 0.437500 0.679199
vt 0.437500 0.750000
vt 0.468750 0.679199
vt 0.468750 0.750000
vt 0.500000 0.679199
vt 0.500000 0.750000
vt 0.531250 0.679199
vt 0.531250 0.750000
vt 0.562500 0.679199
vt 0.562500 0.750000
vt 0.375000 0.212403
vt 0.406250 0.212403
vt 0.437500 0.212403
vt 0.468750 0.212403
vt 0.500000 0.212403
vt 0.531250 0.212403
vt 0.562500 0.212403
vt 0.406250 1.000000
vt 0.375000 1.000000
vt 0.437500 1.000000
vt 0.468750 1.000000
vt 0.500000 1.000000
vt 0.531250 1.000000
vt 0.562500 1.000000
vt 0.562500 0.141602
vt 0.593750 0.141602
vt 0.437500 0.141602
vt 0.468750 0.141602
vt 0.406250 0.141602
vt 0.375000 0.141602
vt 0.593750 0.537597
vt 0.562500 0.537597
vt 0.531250 0.537597
vt 0.500000 0.537597
vt 0.468750 0.537597
vt 0.437500 0.537597
vt 0.406250 0.537597
vt 0.375000 0.537597
vt 0.625000 0.537597
vt 0.125000 0.500000
vt 0.125000 0.537597
vt 0.625000 0.141602
vt 0.875000 0.500000
vt 0.875000 0.537597
vt 0.593750 0.000000
vt 0.625000 0.000000
vt 0.625000 0.070801
vt 0.593750 0.070801
vt 0.406250 0.000000
vt 0.406250 0.070801
vt 0.437500 0.000000
vt 0.437500 0.070801
vt 0.468750 0.000000
vt 0.468750 0.070801
vt 0.500000 0.000000
vt 0.500000 0.070801
vt 0.531250 0.000000
vt 0.531250 0.070801
vt 0.562500 0.000000
vt 0.562500 0.070801
vt 0.593750 0.608398
vt 0.562500 0.608398
vt 0.468750 0.608398
vt 0.437500 0.608398
vt 0.406250 0.608398
vt 0.375000 0.608398
vt 0.625000 0.608398
vt 0.125000 0.608398
vt 0.125000 0.608398
vt 0.375000 0.608398
vt 0.125000 0.679199
vt 0.875000 0.608398
vt 0.125000 0.679199
vt 0.375000 0.679199
vt 0.375000 0.750000
vt 0.125000 0.750000
vt 0.375000 1.000000
vt 0.125000 0.537597
vt 0.375000 0.537597
vt 0.375000 0.212403
vt 0.375000 0.141602
vt 0.468750 0.070801
vt 0.468750 0.141602
vt 0.468750 0.608398
vt 0.468750 0.679199
vn -0.7071 0.7071 0.0000
vn 0.7071 0.7071 0.0000
vn 0.5773 0.5773 -0.5773
vn -0.5773 0.5773 -0.5773
vn -0.7071 0.0000 -0.7071
vn 0.7071 0.0000 -0.7071
vn 1.0000 0.0000 0.0000
vn 0.6049 0.6750 0.4223
vn 0.7052 0.3047 0.6402
vn 0.9045 -0.3015 0.3015
vn 0.5773 -0.5773 0.5773
vn 0.5773 -0.5773 -0.5773
vn -1.0000 0.0000 0.0000
vn -0.6049 0.6750 0.4223
vn -0.7052 0.3047 0.6402
vn 0.6049 -0.6750 0.4223
vn 0.7052 -0.3047 0.6402
vn -0.7052 -0.3047 0.6402
vn -0.6049 -0.6750 0.4223
vn 0.6960 -0.2701 0.6652
vn -0.6960 -0.2701 0.6652
vn 0.6854 -0.1704 0.7079
vn -0.6854 -0.1704 0.7079
vn 0.6777 0.0000 0.7353
vn -0.6777 0.0000 0.7353
vn 0.6854 0.1704 0.7079
vn -0.6854 0.1704 0.7079
vn 0.6960 0.2701 0.6652
vn -0.6960 0.2701 0.6652
vn -0.9045 -0.3015 0.3015
vn -0.8342 0.0098 0.5513
vn -0.7071 0.0251 0.7067
vn -0.9109 -0.2864 0.2968
vn 0.9410 -0.1955 0.2761
vn 0.9094 0.2781 -0.3093
vn 0.7588 -0.0689 -0.6477
vn 0.7483 -0.0702 -0.6596
vn 0.8834 -0.3485 -0.3133
vn 0.7071 0.0000 0.7071
vn 0.8165 0.4082 0.4082
vn 0.8627 -0.4126 -0.2922
vn -0.8834 -0.3485 -0.3133
vn -0.7483 -0.0702 -0.6596
vn -0.7588 -0.0689 -0.6477
vn -0.9094 0.2781 -0.3093
vn -0.9410 -0.1955 0.2761
vn 0.8342 0.0098 0.5513
vn 0.7071 0.0251 0.7067
vn 0.9109 -0.2864 0.2968
vn -0.8165 0.4082 0.4082
vn -0.8627 -0.4126 -0.2922
vn 0.5972 -0.6545 -0.4635
vn -0.5972 -0.6545 -0.4635
vn -0.5773 -0.5773 0.5773
vn -0.5773 -0.5773 -0.5773
vn 0.5616 -0.4782 0.6752
vn -0.5616 -0.4782 0.6752
vn 0.0000 0.7071 0.7071
usemtl Material
s 1
f 156/122/58 169/123/59 105/124/60 101/125/61
f 121/126/62 101/125/61 105/127/60 120/128/63
f 152/129/64 137/130/59 103/131/65 128/132/66
f 106/133/63 154/134/67 185/135/68 186/136/69
f 168/137/70 156/122/58 101/125/61 121/126/62
f 128/132/66 103/131/65 99/138/71 107/139/72
f 104/140/73 134/141/74 113/142/75 100/143/76
f 134/141/74 133/144/77 112/145/78 113/142/75
f 133/144/77 132/146/79 111/147/80 112/145/78
f 132/146/79 131/148/81 110/149/82 111/147/80
f 131/148/81 130/150/83 109/151/84 110/149/82
f 130/150/83 129/152/85 108/153/86 109/151/84
f 129/152/85 128/132/66 107/139/72 108/153/86
f 171/154/87 158/155/70 127/156/62 102/157/62
f 158/155/70 160/158/70 126/159/62 127/156/62
f 160/158/70 162/160/88 125/161/62 126/159/62
f 162/160/88 163/162/89 124/163/62 125/161/62
f 163/162/89 164/164/89 123/165/62 124/163/62
f 164/164/89 166/166/90 122/167/62 123/165/62
f 166/166/90 168/137/70 121/126/62 122/167/62
f 135/168/91 146/169/64 134/141/74 104/140/73
f 146/169/64 147/170/64 133/144/77 134/141/74
f 147/170/64 148/171/92 132/146/79 133/144/77
f 148/171/92 149/172/93 131/148/81 132/146/79
f 149/172/93 150/173/94 130/150/83 131/148/81
f 150/173/94 151/174/95 129/152/85 130/150/83
f 151/174/95 152/129/64 128/132/66 129/152/85
f 102/157/62 127/156/62 114/175/63 106/176/63
f 127/156/62 126/159/62 115/177/63 114/175/63
f 126/159/62 125/161/62 116/178/63 115/177/63
f 125/161/62 124/163/62 117/179/63 116/178/63
f 124/163/62 123/165/62 118/180/63 117/179/63
f 123/165/62 122/167/62 119/181/63 118/180/63
f 122/167/62 121/126/62 120/128/63 119/181/63
f 182/182/96 184/183/64 152/129/64 151/174/95
f 176/184/64 178/185/97 148/171/92 147/170/64
f 174/186/64 176/184/64 147/170/64 146/169/64
f 153/187/98 174/186/64 146/169/64 135/168/91
f 108/153/86 107/139/72 145/188/70 144/189/99
f 109/151/84 108/153/86 144/189/99 143/190/100
f 110/149/82 109/151/84 143/190/100 142/191/101
f 111/147/80 110/149/82 142/191/101 141/192/102
f 112/145/78 111/147/80 141/192/102 140/193/70
f 113/142/75 112/145/78 140/193/70 139/194/70
f 100/143/76 113/142/75 139/194/70 138/195/103
f 107/139/72 99/138/71 136/196/58 145/188/70
f 104/197/73 100/143/76 138/195/103 135/198/91
f 184/183/64 170/199/59 137/130/59 152/129/64
f 99/138/71 103/200/65 137/201/59 136/196/58
f 120/202/63 105/203/60 169/204/59 183/205/64
f 183/205/64 169/204/59 170/199/59 184/183/64
f 106/133/63 114/206/63 173/207/64 154/134/67
f 154/134/67 173/207/64 174/186/64 153/187/98
f 114/206/63 115/208/63 175/209/64 173/207/64
f 173/207/64 175/209/64 176/184/64 174/186/64
f 115/208/63 116/210/63 177/211/104 175/209/64
f 175/209/64 177/211/104 178/185/97 176/184/64
f 116/210/63 117/212/63 179/213/105 177/211/104
f 117/212/63 118/214/63 180/215/105 179/213/105
f 118/214/63 119/216/63 181/217/106 180/215/105
f 119/216/63 120/202/63 183/205/64 181/217/106
f 181/217/106 183/205/64 184/183/64 182/182/96
f 144/189/99 145/188/70 167/218/70 165/219/58
f 165/219/58 167/218/70 168/137/70 166/166/90
f 140/193/70 141/192/102 161/220/107 159/221/70
f 159/221/70 161/220/107 162/160/88 160/158/70
f 139/194/70 140/193/70 159/221/70 157/222/70
f 157/222/70 159/221/70 160/158/70 158/155/70
f 138/195/103 139/194/70 157/222/70 172/223/108
f 172/223/108 157/222/70 158/155/70 171/154/87
f 145/188/70 136/196/58 155/224/58 167/218/70
f 167/218/70 155/224/58 156/122/58 168/137/70
f 172/223/108 153/225/98 192/226/109 189/227/110
f 153/225/98 172/223/108 171/154/87 154/228/67
f 136/196/58 137/201/59 170/229/59 155/224/58
f 155/224/58 170/229/59 169/123/59 156/122/58
f 185/230/68 188/231/111 187/232/112 186/233/69
f 171/154/87 102/157/62 187/232/112 188/231/111
f 102/157/62 106/176/63 186/234/69 187/232/112
f 154/228/67 171/154/87 188/231/111 185/230/68
f 191/235/113 190/236/114 189/227/110 192/226/109
f 138/195/103 172/223/108 189/227/110 190/236/114
f 153/187/98 135/168/91 191/237/113 192/238/109
f 135/198/91 138/195/103 190/236/114 191/235/113
f 178/185/97 177/211/104 195/239/115 196/240/115
f 162/160/88 161/220/107 193/241/115 194/242/115
f 193/241/115 196/240/115 195/239/115 194/242/115
f 178/185/97 161/220/107 141/192/102 148/171/92
f 150/173/94 149/172/93 148/171/92 141/192/102 142/191/101 143/190/100 144/189/99 151/174/95
f 165/219/58 166/166/90 144/189/99
f 182/182/96 151/174/95 181/217/106
f 151/174/95 144/189/99 166/166/90 181/217/106
f 177/211/104 179/213/105 180/215/105 181/217/106 166/166/90 164/164/89 163/162/89 162/160/88
